<?xml version="1.0" encoding="UTF-8" standalone="no"?>
<!DOCTYPE svg PUBLIC "-//W3C//DTD SVG 1.1//EN" "http://www.w3.org/Graphics/SVG/1.1/DTD/svg11.dtd">
<!-- Created with Vectornator (http://vectornator.io/) -->
<svg height="100%" stroke-miterlimit="10" style="fill-rule:nonzero;clip-rule:evenodd;stroke-linecap:round;stroke-linejoin:round;" version="1.1" viewBox="-5.11627e-05 -0.000426446 179.116 320.794" width="100%" xml:space="preserve" xmlns="http://www.w3.org/2000/svg" xmlns:xlink="http://www.w3.org/1999/xlink">
<defs/>
<g id="Layer">
<path d="M12.202 47.375C16.4985 43.261 24.355 35.472 29.388 30.919C47.606 14.435 56.961 9.813 60.198 13.283C63.385 16.7 60.644 27.958 54.596 43.464C46.001 65.5 30.725 96.114 16.287 124.989C-4.081 165.725 114.383 16.17 134.751 56.906C155.902 99.208 48.967 169.923 48.967 169.923C48.967 169.923 160.622 135.417 160.622 172.646C160.622 182.584 130.339 192.002 123.857 194.433C37.851 226.685 191.828 192.304 163.345 267.962C144.531 317.938 61.222 322.624 61.222 277.493" fill="none" opacity="1" stroke="#6a9d23" stroke-linecap="round" stroke-linejoin="round" stroke-width="24.4041"/>
</g>
</svg>
