<?xml version="1.0" encoding="UTF-8"?>
<svg id="Layer_2" xmlns="http://www.w3.org/2000/svg" viewBox="0 0 103.13 121.03">
  <defs>
    <style>
      .cls-1 {
        fill: #6a9d23;
      }
    </style>
  </defs>
  <g id="Layer_2-2" data-name="Layer_2">
    <path class="cls-1" d="M.77,18.11C-3.08,19.21,8.5.06,14.66,0c5.33-.05,5.78,8.56,7.24,23.48,0,0,5.49-15.45,26.19-17.81,19.33-2.21,22.37,15.41,21.04,23.41s-9.37,18-9.37,18c0,0,17.51-4.64,28.36-4.83,12.44-.22,15.42,1.07,14.97,4.46-.48,3.59-1.32,7.52-6.81,14.15s-11.56,10.02-11.56,10.02c0,0,8.22,3.2,9.44,11.2,1.54,10.1-.11,20.02-16.33,29.57s-45.19,15.98-61.11-2.08c-10.72-12.16-.82-26.81,5.61-29.27,3.29-1.26,4.95-1.52,2.97,4.42-2.53,7.62-.59,13.85,7.07,17.82,8.31,4.3,25.1,1.16,35-8.19,10.81-10.22,6.75-12.69,2.82-14.35s-12.07-1.18-14.63-2.38c-3.07-1.45,6.04-7.11,11.81-10.44s11.77-8.95,10.51-10.26c-1.19-1.24-14.22,1.78-24.15,4.41-8.2,2.17-18.63,6.48-19.89,5.49-2.1-1.66,1.72-9.98,5.39-15.08,4.87-6.78,13.03-20.89,10.51-26.63-2.04-4.64-7.04-3.87-11.41-1.33-4.11,2.38-8.48,9.42-13.41,18.15-4.51,7.97-10.2,16.61-11.76,12.83s-1.1-24.69-1.77-30.47c-.81-7.11,0-9.31-4.97-7.83-2.86.85-4.11,1.22-5.67,1.67Z"/>
  </g>
</svg>