<?xml version="1.0" encoding="UTF-8"?>
<svg xmlns="http://www.w3.org/2000/svg" version="1.1" viewBox="0 0 121 121">
  <defs>
    <style>
      .cls-1 {
        fill: #6a9d23;
      }
    </style>
  </defs>
  <!-- Generator: Adobe Illustrator 28.6.0, SVG Export Plug-In . SVG Version: 1.2.0 Build 709)  -->
  <g>
    <g id="Layer_2">
      <g id="Layer_2-2">
        <path class="cls-1" d="M4.5,21C.7,22.1,14.2,0,20.4,0c5.3,0,10.9,8.6,12.4,23.5,0,0,5.5-15.4,26.2-17.8,19.3-2.2,22.4,15.4,21,23.4-1.3,8-9.4,18-9.4,18,0,0,17.5-4.6,28.4-4.8,12.4-.2,15.4,1.1,15,4.5-.5,3.6-1.3,7.5-6.8,14.2-5.5,6.6-11.6,10-11.6,10,0,0,8.2,3.2,9.4,11.2,1.5,10.1-.1,20-16.3,29.6s-45.2,16-61.1-2.1c-10.7-12.2-.8-26.8,5.6-29.3,3.3-1.3,5-1.5,3,4.4-2.5,7.6-.6,13.8,7.1,17.8,8.3,4.3,25.1,1.2,35-8.2,10.8-10.2,6.8-12.7,2.8-14.3s-12.1-1.2-14.6-2.4c-3.1-1.4,6-7.1,11.8-10.4,5.8-3.3,11.8-9,10.5-10.3-1.2-1.2-14.2,1.8-24.2,4.4-8.2,2.2-18.6,6.5-19.9,5.5-2.1-1.7,1.7-10,5.4-15.1,4.9-6.8,13-20.9,10.5-26.6-2-4.6-7-3.9-11.4-1.3-4.1,2.4-8.5,9.4-13.4,18.2-4.5,8-13.6,16.6-15.2,12.8s-2-22.4-2.7-28.2c-.8-7.1-2-8.7-6.9-7.3-2.9.9-4.9,1.2-6.5,1.7h0Z"/>
      </g>
    </g>
  </g>
</svg>